<svg xmlns="http://www.w3.org/2000/svg" xmlns:xlink="http://www.w3.org/1999/xlink" width="320" zoomAndPan="magnify" viewBox="0 0 240 239.999995" height="320" preserveAspectRatio="xMidYMid meet" version="1.0"><defs><clipPath id="537d8263e8"><path d="M 0 24 L 158.667969 24 L 158.667969 182.667969 L 0 182.667969 Z M 0 24 " clip-rule="nonzero"/></clipPath><clipPath id="4771ce77e0"><path d="M 79.335938 24 C 35.519531 24 0 59.519531 0 103.335938 C 0 147.148438 35.519531 182.667969 79.335938 182.667969 C 123.148438 182.667969 158.667969 147.148438 158.667969 103.335938 C 158.667969 59.519531 123.148438 24 79.335938 24 Z M 79.335938 24 " clip-rule="nonzero"/></clipPath><clipPath id="a3dc7b51de"><path d="M 107.113281 55.230469 L 239.863281 55.230469 L 239.863281 187.980469 L 107.113281 187.980469 Z M 107.113281 55.230469 " clip-rule="nonzero"/></clipPath><clipPath id="467410306d"><path d="M 112.488281 60.535156 L 234.625 60.535156 L 234.625 182.667969 L 112.488281 182.667969 Z M 112.488281 60.535156 " clip-rule="nonzero"/></clipPath><clipPath id="3840e97a03"><path d="M 173.558594 60.535156 C 139.832031 60.535156 112.488281 87.875 112.488281 121.601562 C 112.488281 155.328125 139.832031 182.667969 173.558594 182.667969 C 207.285156 182.667969 234.625 155.328125 234.625 121.601562 C 234.625 87.875 207.285156 60.535156 173.558594 60.535156 Z M 173.558594 60.535156 " clip-rule="nonzero"/></clipPath></defs><g clip-path="url(#537d8263e8)"><g clip-path="url(#4771ce77e0)"><path fill="#6851ff" d="M 0 24 L 158.667969 24 L 158.667969 182.667969 L 0 182.667969 Z M 0 24 " fill-opacity="1" fill-rule="nonzero"/></g></g><g clip-path="url(#a3dc7b51de)"><path fill="#f1f5f9" d="M 239.992188 121.671875 C 239.992188 122.757812 239.96875 123.84375 239.914062 124.929688 C 239.859375 126.015625 239.78125 127.101562 239.671875 128.183594 C 239.566406 129.265625 239.433594 130.34375 239.273438 131.417969 C 239.113281 132.496094 238.929688 133.566406 238.71875 134.632812 C 238.503906 135.699219 238.265625 136.757812 238.003906 137.8125 C 237.738281 138.871094 237.449219 139.917969 237.132812 140.957031 C 236.816406 141.996094 236.476562 143.03125 236.109375 144.054688 C 235.742188 145.078125 235.351562 146.089844 234.9375 147.097656 C 234.519531 148.101562 234.078125 149.09375 233.613281 150.078125 C 233.148438 151.058594 232.660156 152.03125 232.148438 152.992188 C 231.636719 153.949219 231.101562 154.894531 230.542969 155.828125 C 229.980469 156.761719 229.402344 157.679688 228.796875 158.582031 C 228.191406 159.488281 227.566406 160.375 226.917969 161.25 C 226.269531 162.121094 225.601562 162.980469 224.914062 163.820312 C 224.222656 164.660156 223.511719 165.484375 222.78125 166.289062 C 222.050781 167.09375 221.300781 167.882812 220.535156 168.652344 C 219.765625 169.417969 218.976562 170.167969 218.171875 170.898438 C 217.367188 171.628906 216.542969 172.339844 215.703125 173.03125 C 214.863281 173.71875 214.003906 174.386719 213.132812 175.035156 C 212.257812 175.683594 211.371094 176.308594 210.464844 176.914062 C 209.5625 177.515625 208.644531 178.097656 207.710938 178.65625 C 206.777344 179.21875 205.832031 179.753906 204.875 180.265625 C 203.914062 180.777344 202.945312 181.265625 201.960938 181.730469 C 200.976562 182.195312 199.984375 182.636719 198.980469 183.054688 C 197.976562 183.46875 196.960938 183.859375 195.9375 184.226562 C 194.914062 184.59375 193.882812 184.933594 192.839844 185.25 C 191.800781 185.566406 190.753906 185.855469 189.699219 186.121094 C 188.644531 186.382812 187.582031 186.621094 186.515625 186.832031 C 185.449219 187.046875 184.378906 187.230469 183.304688 187.390625 C 182.226562 187.550781 181.148438 187.683594 180.066406 187.789062 C 178.984375 187.898438 177.898438 187.976562 176.8125 188.03125 C 175.726562 188.082031 174.640625 188.109375 173.554688 188.109375 C 172.464844 188.109375 171.378906 188.082031 170.292969 188.03125 C 169.207031 187.976562 168.125 187.898438 167.042969 187.789062 C 165.960938 187.683594 164.882812 187.550781 163.804688 187.390625 C 162.730469 187.230469 161.660156 187.046875 160.59375 186.832031 C 159.527344 186.621094 158.464844 186.382812 157.410156 186.121094 C 156.355469 185.855469 155.308594 185.566406 154.269531 185.25 C 153.226562 184.933594 152.195312 184.59375 151.171875 184.226562 C 150.148438 183.859375 149.132812 183.46875 148.128906 183.054688 C 147.125 182.636719 146.128906 182.195312 145.148438 181.730469 C 144.164062 181.265625 143.195312 180.777344 142.234375 180.265625 C 141.277344 179.753906 140.328125 179.21875 139.398438 178.65625 C 138.464844 178.097656 137.546875 177.515625 136.640625 176.914062 C 135.738281 176.308594 134.847656 175.683594 133.976562 175.035156 C 133.101562 174.386719 132.246094 173.71875 131.40625 173.03125 C 130.566406 172.339844 129.742188 171.628906 128.9375 170.898438 C 128.128906 170.167969 127.34375 169.417969 126.574219 168.652344 C 125.804688 167.882812 125.054688 167.09375 124.324219 166.289062 C 123.59375 165.484375 122.886719 164.660156 122.195312 163.820312 C 121.507812 162.980469 120.835938 162.121094 120.1875 161.25 C 119.542969 160.375 118.914062 159.488281 118.3125 158.582031 C 117.707031 157.679688 117.125 156.761719 116.566406 155.828125 C 116.007812 154.894531 115.472656 153.949219 114.960938 152.992188 C 114.445312 152.03125 113.957031 151.058594 113.492188 150.078125 C 113.027344 149.09375 112.589844 148.101562 112.171875 147.097656 C 111.757812 146.089844 111.363281 145.078125 111 144.054688 C 110.632812 143.03125 110.292969 141.996094 109.976562 140.957031 C 109.660156 139.917969 109.371094 138.871094 109.105469 137.8125 C 108.839844 136.757812 108.601562 135.699219 108.390625 134.632812 C 108.179688 133.566406 107.992188 132.496094 107.832031 131.417969 C 107.675781 130.34375 107.542969 129.265625 107.433594 128.183594 C 107.328125 127.101562 107.246094 126.015625 107.195312 124.929688 C 107.140625 123.84375 107.113281 122.757812 107.113281 121.671875 C 107.113281 120.582031 107.140625 119.496094 107.195312 118.410156 C 107.246094 117.324219 107.328125 116.242188 107.433594 115.160156 C 107.542969 114.078125 107.675781 112.996094 107.832031 111.921875 C 107.992188 110.847656 108.179688 109.777344 108.390625 108.710938 C 108.601562 107.644531 108.839844 106.582031 109.105469 105.527344 C 109.371094 104.472656 109.660156 103.425781 109.976562 102.382812 C 110.292969 101.34375 110.632812 100.3125 111 99.289062 C 111.363281 98.265625 111.757812 97.25 112.171875 96.246094 C 112.589844 95.242188 113.027344 94.246094 113.492188 93.265625 C 113.957031 92.28125 114.445312 91.3125 114.960938 90.351562 C 115.472656 89.394531 116.007812 88.445312 116.566406 87.515625 C 117.125 86.582031 117.707031 85.664062 118.3125 84.757812 C 118.914062 83.855469 119.542969 82.964844 120.1875 82.09375 C 120.835938 81.21875 121.507812 80.363281 122.195312 79.523438 C 122.886719 78.683594 123.59375 77.859375 124.324219 77.054688 C 125.054688 76.246094 125.804688 75.460938 126.574219 74.691406 C 127.34375 73.921875 128.128906 73.171875 128.9375 72.441406 C 129.742188 71.710938 130.566406 71.003906 131.40625 70.3125 C 132.246094 69.621094 133.101562 68.953125 133.976562 68.304688 C 134.847656 67.660156 135.738281 67.03125 136.640625 66.429688 C 137.546875 65.824219 138.464844 65.242188 139.398438 64.683594 C 140.328125 64.125 141.277344 63.589844 142.234375 63.078125 C 143.195312 62.5625 144.164062 62.074219 145.148438 61.609375 C 146.128906 61.144531 147.125 60.703125 148.128906 60.289062 C 149.132812 59.871094 150.148438 59.480469 151.171875 59.117188 C 152.195312 58.75 153.226562 58.40625 154.269531 58.09375 C 155.308594 57.777344 156.355469 57.488281 157.410156 57.222656 C 158.464844 56.957031 159.527344 56.71875 160.59375 56.507812 C 161.660156 56.296875 162.730469 56.109375 163.804688 55.949219 C 164.882812 55.792969 165.960938 55.65625 167.042969 55.550781 C 168.125 55.445312 169.207031 55.363281 170.292969 55.3125 C 171.378906 55.257812 172.464844 55.230469 173.554688 55.230469 C 174.640625 55.230469 175.726562 55.257812 176.8125 55.3125 C 177.898438 55.363281 178.984375 55.445312 180.066406 55.550781 C 181.148438 55.65625 182.226562 55.792969 183.304688 55.949219 C 184.378906 56.109375 185.449219 56.296875 186.515625 56.507812 C 187.582031 56.71875 188.644531 56.957031 189.699219 57.222656 C 190.753906 57.488281 191.800781 57.777344 192.839844 58.09375 C 193.882812 58.40625 194.914062 58.75 195.9375 59.117188 C 196.960938 59.480469 197.976562 59.871094 198.980469 60.289062 C 199.984375 60.703125 200.976562 61.144531 201.960938 61.609375 C 202.945312 62.074219 203.914062 62.5625 204.875 63.078125 C 205.832031 63.589844 206.777344 64.125 207.710938 64.683594 C 208.644531 65.242188 209.5625 65.824219 210.464844 66.429688 C 211.371094 67.03125 212.257812 67.660156 213.132812 68.304688 C 214.003906 68.953125 214.863281 69.621094 215.703125 70.3125 C 216.542969 71.003906 217.367188 71.710938 218.171875 72.441406 C 218.976562 73.171875 219.765625 73.921875 220.535156 74.691406 C 221.300781 75.460938 222.050781 76.246094 222.78125 77.054688 C 223.511719 77.859375 224.222656 78.683594 224.914062 79.523438 C 225.601562 80.363281 226.269531 81.21875 226.917969 82.09375 C 227.566406 82.964844 228.191406 83.855469 228.796875 84.757812 C 229.402344 85.664062 229.980469 86.582031 230.542969 87.515625 C 231.101562 88.445312 231.636719 89.394531 232.148438 90.351562 C 232.660156 91.3125 233.148438 92.28125 233.613281 93.265625 C 234.078125 94.246094 234.519531 95.242188 234.9375 96.246094 C 235.351562 97.25 235.742188 98.265625 236.109375 99.289062 C 236.476562 100.3125 236.816406 101.34375 237.132812 102.382812 C 237.449219 103.425781 237.738281 104.472656 238.003906 105.527344 C 238.265625 106.582031 238.503906 107.644531 238.71875 108.710938 C 238.929688 109.777344 239.113281 110.847656 239.273438 111.921875 C 239.433594 112.996094 239.566406 114.078125 239.671875 115.160156 C 239.78125 116.242188 239.859375 117.324219 239.914062 118.410156 C 239.96875 119.496094 239.992188 120.582031 239.992188 121.671875 Z M 239.992188 121.671875 " fill-opacity="1" fill-rule="nonzero"/></g><g clip-path="url(#467410306d)"><g clip-path="url(#3840e97a03)"><path fill="#6851ff" d="M 112.488281 60.535156 L 234.625 60.535156 L 234.625 182.667969 L 112.488281 182.667969 Z M 112.488281 60.535156 " fill-opacity="1" fill-rule="nonzero"/></g></g></svg>