<svg xmlns="http://www.w3.org/2000/svg" xmlns:xlink="http://www.w3.org/1999/xlink" width="500" zoomAndPan="magnify" viewBox="0 0 375 374.999991" height="500" preserveAspectRatio="xMidYMid meet" version="1.0"><defs><g/><clipPath id="5fcf86ec67"><path d="M 187.5 0 C 83.945312 0 0 83.945312 0 187.5 C 0 291.054688 83.945312 375 187.5 375 C 291.054688 375 375 291.054688 375 187.5 C 375 83.945312 291.054688 0 187.5 0 Z M 187.5 0 " clip-rule="nonzero"/></clipPath></defs><g clip-path="url(#5fcf86ec67)"><rect x="-37.5" width="450" fill="#ffffff" y="-37.499999" height="449.999989" fill-opacity="1"/></g><g fill="#000000" fill-opacity="1"><g transform="translate(72.468172, 119.372019)"><g><path d="M -2.203125 -0.90625 L 0.234375 -4.09375 L -22.09375 -32.21875 L -24.53125 -29.03125 L -26.015625 -30.890625 L -15.640625 -44.375 C -13.984375 -46.519531 -12.179688 -47.789062 -10.234375 -48.1875 C -8.285156 -48.59375 -6.375 -48.066406 -4.5 -46.609375 C -3.988281 -46.222656 -3.40625 -45.695312 -2.75 -45.03125 C -2.101562 -44.375 -1.484375 -43.59375 -0.890625 -42.6875 C -0.304688 -41.78125 0.191406 -40.773438 0.609375 -39.671875 C 1.023438 -38.578125 1.242188 -37.382812 1.265625 -36.09375 C 1.296875 -34.800781 1.078125 -33.445312 0.609375 -32.03125 C 0.140625 -30.625 -0.679688 -29.15625 -1.859375 -27.625 L -7.0625 -20.875 L 3.171875 -7.90625 L 6.3125 -11.984375 L 7.796875 -10.125 L -0.71875 0.9375 Z M -8.703125 -22.890625 L -3.8125 -29.25 C -2.632812 -30.769531 -2.125 -32.460938 -2.28125 -34.328125 C -2.445312 -36.191406 -3.140625 -37.90625 -4.359375 -39.46875 C -4.679688 -39.851562 -5.148438 -40.4375 -5.765625 -41.21875 C -6.378906 -42.007812 -6.984375 -42.628906 -7.578125 -43.078125 C -8.660156 -43.910156 -9.765625 -44.300781 -10.890625 -44.25 C -12.023438 -44.195312 -13.0625 -43.5625 -14 -42.34375 L -19 -35.84375 Z M -8.703125 -22.890625 "/></g></g></g><g fill="#000000" fill-opacity="1"><g transform="translate(90.107807, 96.228466)"><g><path d="M 7.078125 -8.3125 C 7.929688 -9.0625 8.53125 -9.9375 8.875 -10.9375 C 9.226562 -11.9375 9.378906 -13.015625 9.328125 -14.171875 C 9.285156 -15.328125 9.050781 -16.53125 8.625 -17.78125 C 8.207031 -19.039062 7.679688 -20.300781 7.046875 -21.5625 C 6.265625 -23.082031 5.609375 -24.347656 5.078125 -25.359375 C 4.554688 -26.367188 4.101562 -27.207031 3.71875 -27.875 C 3.34375 -28.539062 3.015625 -29.078125 2.734375 -29.484375 C 2.453125 -29.890625 2.160156 -30.269531 1.859375 -30.625 C 0.753906 -31.894531 -0.367188 -32.71875 -1.515625 -33.09375 C -2.671875 -33.46875 -3.847656 -33.132812 -5.046875 -32.09375 C -5.898438 -31.351562 -6.5 -30.484375 -6.84375 -29.484375 C -7.195312 -28.484375 -7.347656 -27.398438 -7.296875 -26.234375 C -7.242188 -25.078125 -7.003906 -23.867188 -6.578125 -22.609375 C -6.160156 -21.359375 -5.640625 -20.113281 -5.015625 -18.875 C -4.242188 -17.351562 -3.585938 -16.082031 -3.046875 -15.0625 C -2.515625 -14.050781 -2.054688 -13.210938 -1.671875 -12.546875 C -1.296875 -11.878906 -0.96875 -11.335938 -0.6875 -10.921875 C -0.414062 -10.515625 -0.128906 -10.144531 0.171875 -9.8125 C 1.285156 -8.519531 2.414062 -7.6875 3.5625 -7.3125 C 4.707031 -6.945312 5.878906 -7.28125 7.078125 -8.3125 Z M 8.453125 -6.46875 C 6.296875 -4.59375 4.082031 -3.878906 1.8125 -4.328125 C -0.445312 -4.773438 -2.601562 -6.179688 -4.65625 -8.546875 C -6.0625 -10.160156 -7.296875 -12.09375 -8.359375 -14.34375 C -9.421875 -16.601562 -10.117188 -18.921875 -10.453125 -21.296875 C -10.785156 -23.671875 -10.660156 -25.972656 -10.078125 -28.203125 C -9.503906 -30.429688 -8.285156 -32.347656 -6.421875 -33.953125 C -4.265625 -35.835938 -2.054688 -36.550781 0.203125 -36.09375 C 2.472656 -35.644531 4.632812 -34.234375 6.6875 -31.859375 C 8.09375 -30.242188 9.320312 -28.3125 10.375 -26.0625 C 11.4375 -23.8125 12.140625 -21.492188 12.484375 -19.109375 C 12.828125 -16.734375 12.703125 -14.4375 12.109375 -12.21875 C 11.523438 -10 10.304688 -8.082031 8.453125 -6.46875 Z M 8.453125 -6.46875 "/></g></g></g><g fill="#000000" fill-opacity="1"><g transform="translate(108.64211, 79.924188)"><g><path d="M -6 -26.4375 L -10.34375 -23.8125 L -10.96875 -25.734375 L -3.484375 -32.78125 L -0.140625 -21.921875 L 0.34375 -22 C 0.0507812 -23.851562 -0.15625 -25.554688 -0.28125 -27.109375 C -0.40625 -28.671875 -0.375 -30.066406 -0.1875 -31.296875 C -0.0078125 -32.523438 0.335938 -33.597656 0.859375 -34.515625 C 1.390625 -35.429688 2.140625 -36.175781 3.109375 -36.75 C 4.335938 -37.5 5.453125 -37.765625 6.453125 -37.546875 C 7.460938 -37.335938 8.238281 -36.785156 8.78125 -35.890625 C 9.28125 -35.046875 9.453125 -34.132812 9.296875 -33.15625 C 9.140625 -32.1875 8.609375 -31.425781 7.703125 -30.875 C 6.960938 -30.425781 6.253906 -30.289062 5.578125 -30.46875 C 4.898438 -30.65625 4.363281 -31.078125 3.96875 -31.734375 C 3.71875 -32.148438 3.566406 -32.609375 3.515625 -33.109375 C 3.472656 -33.609375 3.515625 -34.050781 3.640625 -34.4375 L 3.171875 -34.5625 C 2.273438 -33.789062 1.703125 -32.40625 1.453125 -30.40625 C 1.203125 -28.40625 1.1875 -26.054688 1.40625 -23.359375 C 1.457031 -22.773438 1.546875 -21.957031 1.671875 -20.90625 C 1.796875 -19.863281 1.953125 -18.71875 2.140625 -17.46875 C 2.328125 -16.21875 2.546875 -14.921875 2.796875 -13.578125 C 3.054688 -12.234375 3.363281 -11.015625 3.71875 -9.921875 L 5.71875 -3.453125 L 1.84375 -1.109375 Z M -6 -26.4375 "/></g></g></g><g fill="#000000" fill-opacity="1"><g transform="translate(127.313021, 68.605603)"><g><path d="M 6.265625 -1.890625 C 5.222656 -1.453125 4.320312 -1.429688 3.5625 -1.828125 C 2.800781 -2.222656 2.253906 -2.816406 1.921875 -3.609375 C 1.753906 -3.992188 1.628906 -4.425781 1.546875 -4.90625 C 1.472656 -5.394531 1.410156 -5.804688 1.359375 -6.140625 L -2.015625 -28.03125 L -6.6875 -26.078125 L -7.109375 -28.65625 L -4.765625 -29.640625 C -3.753906 -30.054688 -3.097656 -30.539062 -2.796875 -31.09375 C -2.503906 -31.65625 -2.316406 -32.425781 -2.234375 -33.40625 L -1.796875 -39.09375 L 0.609375 -40.09375 L 1.765625 -32.375 L 8.53125 -35.21875 L 8.9375 -32.625 L 2.171875 -29.78125 L 5.875 -5.765625 L 6.890625 -5.640625 L 12.09375 -14.328125 L 13.75 -13.546875 L 10.34375 -6.90625 C 9.875 -5.976562 9.472656 -5.226562 9.140625 -4.65625 C 8.804688 -4.082031 8.488281 -3.617188 8.1875 -3.265625 C 7.882812 -2.921875 7.582031 -2.644531 7.28125 -2.4375 C 6.988281 -2.226562 6.648438 -2.046875 6.265625 -1.890625 Z M 6.265625 -1.890625 "/></g></g></g><g fill="#000000" fill-opacity="1"><g transform="translate(143.600706, 61.720651)"><g><path d="M -1.09375 12.765625 C -2.863281 13.265625 -4.207031 13.28125 -5.125 12.8125 C -6.050781 12.351562 -6.644531 11.65625 -6.90625 10.71875 C -7.164062 9.8125 -7.109375 8.972656 -6.734375 8.203125 C -6.359375 7.429688 -5.71875 6.914062 -4.8125 6.65625 C -3.976562 6.425781 -3.265625 6.488281 -2.671875 6.84375 C -2.085938 7.195312 -1.691406 7.738281 -1.484375 8.46875 C -1.390625 8.789062 -1.363281 9.191406 -1.40625 9.671875 C -1.445312 10.160156 -1.675781 10.640625 -2.09375 11.109375 L -1.765625 11.4375 C -0.0664062 10.957031 1.039062 9.972656 1.5625 8.484375 C 2.09375 7.003906 2.316406 5.140625 2.234375 2.890625 L 1.25 -28.046875 L -3.71875 -26.640625 L -3.796875 -29.234375 L 1.203125 -30.65625 L 1.015625 -35.0625 C 0.953125 -36.5 1.078125 -37.867188 1.390625 -39.171875 C 1.710938 -40.484375 2.222656 -41.664062 2.921875 -42.71875 C 3.628906 -43.78125 4.515625 -44.707031 5.578125 -45.5 C 6.648438 -46.289062 7.867188 -46.878906 9.234375 -47.265625 C 11.023438 -47.773438 12.375 -47.796875 13.28125 -47.328125 C 14.1875 -46.867188 14.773438 -46.164062 15.046875 -45.21875 C 15.304688 -44.3125 15.25 -43.472656 14.875 -42.703125 C 14.507812 -41.941406 13.875 -41.429688 12.96875 -41.171875 C 12.132812 -40.929688 11.421875 -40.992188 10.828125 -41.359375 C 10.234375 -41.722656 9.835938 -42.265625 9.640625 -42.984375 C 9.546875 -43.316406 9.515625 -43.71875 9.546875 -44.1875 C 9.585938 -44.664062 9.816406 -45.144531 10.234375 -45.625 L 9.921875 -45.9375 C 8.179688 -45.445312 6.960938 -44.445312 6.265625 -42.9375 C 5.578125 -41.4375 5.285156 -39.539062 5.390625 -37.25 L 5.5625 -31.890625 L 11.484375 -33.5625 L 11.578125 -30.96875 L 5.65625 -29.296875 L 6.59375 0.71875 C 6.65625 2.144531 6.523438 3.507812 6.203125 4.8125 C 5.890625 6.125 5.410156 7.300781 4.765625 8.34375 C 4.128906 9.382812 3.320312 10.285156 2.34375 11.046875 C 1.363281 11.816406 0.21875 12.390625 -1.09375 12.765625 Z M -1.09375 12.765625 "/></g></g></g><g fill="#000000" fill-opacity="1"><g transform="translate(157.065546, 57.267127)"><g><path d="M 10.5 -3.015625 C 11.625 -3.160156 12.609375 -3.550781 13.453125 -4.1875 C 14.304688 -4.820312 15.03125 -5.632812 15.625 -6.625 C 16.21875 -7.625 16.6875 -8.765625 17.03125 -10.046875 C 17.375 -11.328125 17.628906 -12.664062 17.796875 -14.0625 C 17.992188 -15.757812 18.148438 -17.171875 18.265625 -18.296875 C 18.390625 -19.429688 18.476562 -20.382812 18.53125 -21.15625 C 18.582031 -21.925781 18.601562 -22.554688 18.59375 -23.046875 C 18.59375 -23.535156 18.5625 -24.003906 18.5 -24.453125 C 18.28125 -26.128906 17.796875 -27.441406 17.046875 -28.390625 C 16.304688 -29.335938 15.148438 -29.710938 13.578125 -29.515625 C 12.453125 -29.367188 11.460938 -28.972656 10.609375 -28.328125 C 9.765625 -27.691406 9.039062 -26.878906 8.4375 -25.890625 C 7.84375 -24.898438 7.375 -23.765625 7.03125 -22.484375 C 6.6875 -21.210938 6.429688 -19.882812 6.265625 -18.5 C 6.066406 -16.789062 5.910156 -15.367188 5.796875 -14.234375 C 5.679688 -13.097656 5.597656 -12.144531 5.546875 -11.375 C 5.492188 -10.601562 5.472656 -9.972656 5.484375 -9.484375 C 5.492188 -8.992188 5.523438 -8.523438 5.578125 -8.078125 C 5.796875 -6.390625 6.28125 -5.070312 7.03125 -4.125 C 7.78125 -3.175781 8.9375 -2.804688 10.5 -3.015625 Z M 10.625 -0.6875 C 7.789062 -0.320312 5.550781 -0.953125 3.90625 -2.578125 C 2.269531 -4.210938 1.253906 -6.582031 0.859375 -9.6875 C 0.585938 -11.8125 0.632812 -14.101562 1 -16.5625 C 1.363281 -19.03125 2.0625 -21.347656 3.09375 -23.515625 C 4.125 -25.679688 5.5 -27.53125 7.21875 -29.0625 C 8.9375 -30.601562 11.015625 -31.53125 13.453125 -31.84375 C 16.296875 -32.207031 18.53125 -31.570312 20.15625 -29.9375 C 21.789062 -28.3125 22.804688 -25.945312 23.203125 -22.84375 C 23.484375 -20.707031 23.441406 -18.410156 23.078125 -15.953125 C 22.710938 -13.492188 22.015625 -11.175781 20.984375 -9 C 19.953125 -6.832031 18.578125 -4.984375 16.859375 -3.453125 C 15.140625 -1.929688 13.0625 -1.007812 10.625 -0.6875 Z M 10.625 -0.6875 "/></g></g></g><g fill="#000000" fill-opacity="1"><g transform="translate(182.091061, 54.262229)"><g><path d="M 5.46875 0.75 C 4.375 0.738281 3.550781 0.398438 3 -0.265625 C 2.445312 -0.929688 2.175781 -1.695312 2.1875 -2.5625 C 2.195312 -2.976562 2.25 -3.410156 2.34375 -3.859375 C 2.445312 -4.316406 2.539062 -4.734375 2.625 -5.109375 L 11.546875 -38.6875 L 6.453125 -38.75 L 6.9375 -40.734375 L 17.15625 -42.71875 L 6.546875 -2.90625 L 7.546875 -2.4375 L 14.171875 -8.84375 L 15.5 -7.734375 L 11.40625 -3.109375 C 10.070312 -1.546875 8.957031 -0.507812 8.0625 0 C 7.164062 0.507812 6.300781 0.757812 5.46875 0.75 Z M 5.46875 0.75 "/></g></g></g><g fill="#000000" fill-opacity="1"><g transform="translate(195.864727, 54.322527)"><g><path d="M 6.265625 1.453125 C 5.179688 1.316406 4.394531 0.890625 3.90625 0.171875 C 3.425781 -0.546875 3.238281 -1.335938 3.34375 -2.203125 C 3.394531 -2.609375 3.492188 -3.03125 3.640625 -3.46875 C 3.796875 -3.914062 3.929688 -4.320312 4.046875 -4.6875 L 11.59375 -24.515625 L 6.546875 -25.125 L 7.25 -27.03125 L 17.671875 -27.921875 L 7.703125 -2.078125 L 8.671875 -1.5 L 15.90625 -7.171875 L 17.125 -5.921875 L 12.578125 -1.75 C 11.078125 -0.351562 9.851562 0.550781 8.90625 0.96875 C 7.96875 1.394531 7.085938 1.554688 6.265625 1.453125 Z M 17.640625 -34.1875 C 16.773438 -34.289062 16.15625 -34.609375 15.78125 -35.140625 C 15.414062 -35.679688 15.269531 -36.234375 15.34375 -36.796875 C 15.363281 -36.953125 15.382812 -37.117188 15.40625 -37.296875 C 15.425781 -37.484375 15.484375 -37.664062 15.578125 -37.84375 C 15.859375 -38.570312 16.304688 -39.132812 16.921875 -39.53125 C 17.546875 -39.9375 18.285156 -40.085938 19.140625 -39.984375 C 20.003906 -39.878906 20.617188 -39.554688 20.984375 -39.015625 C 21.359375 -38.484375 21.507812 -37.9375 21.4375 -37.375 C 21.414062 -37.21875 21.394531 -37.046875 21.375 -36.859375 C 21.351562 -36.671875 21.296875 -36.488281 21.203125 -36.3125 C 20.921875 -35.582031 20.46875 -35.019531 19.84375 -34.625 C 19.226562 -34.226562 18.492188 -34.082031 17.640625 -34.1875 Z M 17.640625 -34.1875 "/></g></g></g><g fill="#000000" fill-opacity="1"><g transform="translate(209.419598, 54.617452)"><g><path d="M 13.921875 -23.765625 L 11.484375 -24.53125 L 12.734375 -26.5625 L 22.71875 -23.421875 L 21.46875 -21.375 L 18.078125 -22.453125 L 11.125 -2.53125 L 11.5 -2.421875 L 30.3125 -21.015625 L 33.640625 -19.953125 L 26.21875 2.234375 L 26.640625 2.375 L 43.40625 -14.453125 L 40 -15.53125 L 41.265625 -17.546875 L 49.890625 -14.828125 L 48.625 -12.796875 L 46.375 -13.515625 L 24.109375 7.625 L 20.875 6.59375 L 28 -15.234375 L 27.578125 -15.359375 L 9.15625 2.890625 L 5.65625 1.796875 Z M 13.921875 -23.765625 "/></g></g></g><g fill="#000000" fill-opacity="1"><g transform="translate(242.86637, 65.346769)"><g><path d="M 10.15625 4 C 11.144531 4.570312 12.164062 4.863281 13.21875 4.875 C 14.28125 4.882812 15.347656 4.675781 16.421875 4.25 C 17.503906 3.820312 18.570312 3.207031 19.625 2.40625 C 20.675781 1.601562 21.691406 0.695312 22.671875 -0.3125 C 23.867188 -1.519531 24.859375 -2.539062 25.640625 -3.375 C 26.421875 -4.207031 27.066406 -4.910156 27.578125 -5.484375 C 28.085938 -6.066406 28.488281 -6.550781 28.78125 -6.9375 C 29.082031 -7.332031 29.347656 -7.726562 29.578125 -8.125 C 30.421875 -9.582031 30.832031 -10.914062 30.8125 -12.125 C 30.800781 -13.332031 30.113281 -14.332031 28.75 -15.125 C 27.757812 -15.695312 26.734375 -15.988281 25.671875 -16 C 24.609375 -16.007812 23.539062 -15.800781 22.46875 -15.375 C 21.394531 -14.957031 20.332031 -14.347656 19.28125 -13.546875 C 18.226562 -12.742188 17.21875 -11.84375 16.25 -10.84375 C 15.050781 -9.625 14.054688 -8.597656 13.265625 -7.765625 C 12.484375 -6.929688 11.835938 -6.222656 11.328125 -5.640625 C 10.816406 -5.054688 10.410156 -4.566406 10.109375 -4.171875 C 9.816406 -3.785156 9.5625 -3.398438 9.34375 -3.015625 C 8.488281 -1.546875 8.066406 -0.207031 8.078125 1 C 8.097656 2.207031 8.789062 3.207031 10.15625 4 Z M 8.84375 5.921875 C 6.363281 4.472656 4.972656 2.601562 4.671875 0.3125 C 4.378906 -1.96875 5.015625 -4.460938 6.578125 -7.171875 C 7.660156 -9.023438 9.09375 -10.816406 10.875 -12.546875 C 12.664062 -14.273438 14.628906 -15.679688 16.765625 -16.765625 C 18.898438 -17.859375 21.117188 -18.488281 23.421875 -18.65625 C 25.722656 -18.820312 27.9375 -18.289062 30.0625 -17.0625 C 32.539062 -15.625 33.929688 -13.757812 34.234375 -11.46875 C 34.535156 -9.1875 33.894531 -6.691406 32.3125 -3.984375 C 31.238281 -2.117188 29.804688 -0.328125 28.015625 1.390625 C 26.234375 3.117188 24.269531 4.53125 22.125 5.625 C 19.988281 6.726562 17.769531 7.359375 15.46875 7.515625 C 13.175781 7.679688 10.96875 7.148438 8.84375 5.921875 Z M 8.84375 5.921875 "/></g></g></g><g fill="#000000" fill-opacity="1"><g transform="translate(264.162496, 77.15552)"><g><path d="M 5.34375 5.5625 C 3.90625 4.300781 3.320312 2.851562 3.59375 1.21875 C 3.863281 -0.414062 4.867188 -2.222656 6.609375 -4.203125 C 7.628906 -5.367188 8.8125 -6.488281 10.15625 -7.5625 C 11.5 -8.644531 12.925781 -9.625 14.4375 -10.5 C 15.957031 -11.375 17.53125 -12.101562 19.15625 -12.6875 C 20.789062 -13.269531 22.382812 -13.628906 23.9375 -13.765625 C 25.5 -13.910156 27 -13.804688 28.4375 -13.453125 C 29.875 -13.097656 31.160156 -12.421875 32.296875 -11.421875 C 33.578125 -10.304688 34.316406 -9.144531 34.515625 -7.9375 C 34.710938 -6.738281 34.476562 -5.378906 33.8125 -3.859375 L 34.15625 -3.5625 L 38.484375 -5.109375 L 40.265625 -3.546875 L 18.015625 11.765625 L 18.5 12.78125 L 27.671875 12.171875 L 27.984375 13.875 L 21.875 14.765625 C 19.800781 15.054688 18.28125 15.125 17.3125 14.96875 C 16.34375 14.820312 15.5625 14.488281 14.96875 13.96875 C 14.125 13.226562 13.710938 12.457031 13.734375 11.65625 C 13.753906 10.863281 14.050781 10.140625 14.625 9.484375 C 14.894531 9.171875 15.253906 8.828125 15.703125 8.453125 C 16.148438 8.085938 16.507812 7.804688 16.78125 7.609375 L 21.3125 4.5 L 21.078125 4.078125 C 19.347656 4.828125 17.726562 5.484375 16.21875 6.046875 C 14.71875 6.609375 13.304688 6.972656 11.984375 7.140625 C 10.660156 7.304688 9.441406 7.273438 8.328125 7.046875 C 7.222656 6.828125 6.226562 6.332031 5.34375 5.5625 Z M 8.875 3.84375 C 9.46875 4.363281 10.265625 4.675781 11.265625 4.78125 C 12.273438 4.894531 13.40625 4.859375 14.65625 4.671875 C 15.90625 4.484375 17.203125 4.171875 18.546875 3.734375 C 19.898438 3.304688 21.222656 2.820312 22.515625 2.28125 C 23.804688 1.75 25.019531 1.191406 26.15625 0.609375 C 27.300781 0.0234375 28.269531 -0.519531 29.0625 -1.03125 L 29.765625 -1.484375 C 31.347656 -2.492188 32.304688 -3.632812 32.640625 -4.90625 C 32.984375 -6.1875 32.535156 -7.367188 31.296875 -8.453125 C 29.753906 -9.796875 27.75 -10.34375 25.28125 -10.09375 C 22.820312 -9.851562 20.09375 -8.742188 17.09375 -6.765625 C 16.582031 -6.398438 16 -5.972656 15.34375 -5.484375 C 14.695312 -5.003906 14.046875 -4.503906 13.390625 -3.984375 C 12.742188 -3.460938 12.132812 -2.945312 11.5625 -2.4375 C 10.988281 -1.9375 10.53125 -1.484375 10.1875 -1.078125 C 9.21875 0.0234375 8.585938 0.972656 8.296875 1.765625 C 8.003906 2.554688 8.195312 3.25 8.875 3.84375 Z M 8.875 3.84375 "/></g></g></g><g fill="#000000" fill-opacity="1"><g transform="translate(284.664835, 94.522367)"><g><path d="M 11.921875 16.78125 C 11.242188 15.882812 10.992188 15.015625 11.171875 14.171875 C 11.347656 13.328125 11.78125 12.644531 12.46875 12.125 C 12.800781 11.863281 13.171875 11.625 13.578125 11.40625 C 13.984375 11.195312 14.375 11.023438 14.75 10.890625 L 32.203125 3.84375 C 32.660156 3.644531 33.039062 3.429688 33.34375 3.203125 C 34.207031 2.546875 34.320312 1.800781 33.6875 0.96875 C 33.0625 0.15625 31.960938 -0.457031 30.390625 -0.875 C 28.828125 -1.289062 27 -1.507812 24.90625 -1.53125 C 22.8125 -1.550781 20.597656 -1.351562 18.265625 -0.9375 C 15.929688 -0.519531 13.695312 0.148438 11.5625 1.078125 L 3.46875 4.546875 L 0.71875 0.9375 L 37.53125 -14.828125 L 34.453125 -18.875 L 36.296875 -19.71875 L 44.15625 -12.921875 L 20.578125 -3 L 20.703125 -2.546875 C 22.367188 -2.816406 24.019531 -3.039062 25.65625 -3.21875 C 27.289062 -3.394531 28.847656 -3.425781 30.328125 -3.3125 C 31.816406 -3.207031 33.171875 -2.910156 34.390625 -2.421875 C 35.609375 -1.941406 36.632812 -1.160156 37.46875 -0.078125 C 38.4375 1.210938 38.789062 2.414062 38.53125 3.53125 C 38.28125 4.65625 37.609375 5.628906 36.515625 6.453125 C 35.867188 6.953125 35.015625 7.414062 33.953125 7.84375 L 15.46875 15.375 L 15.734375 16.453125 L 24.828125 17.703125 L 24.796875 19.4375 L 18.640625 19.078125 C 16.578125 18.984375 15.0625 18.734375 14.09375 18.328125 C 13.125 17.929688 12.398438 17.414062 11.921875 16.78125 Z M 11.921875 16.78125 "/></g></g></g><g fill="#000000" fill-opacity="1"><g transform="translate(14.70838, 162.302503)"><g><path d="M 2.328125 -0.546875 L 2.203125 3.46875 L 36.734375 13.28125 L 36.875 9.265625 L 39.171875 9.90625 L 38.25 37.375 L 28.828125 34.6875 L 28.953125 30.84375 L 35.859375 32.765625 L 36.34375 18.015625 L 20.375 13.53125 L 20.015625 24.03125 L 24.671875 25.375 L 24.5625 28.25 L 12.8125 24.859375 L 12.90625 21.984375 L 17.484375 23.328125 L 17.84375 12.765625 L 2.03125 8.28125 L 1.875 13.421875 L -0.421875 12.78125 L 0.046875 -1.1875 Z M 2.328125 -0.546875 "/></g></g></g><g fill="#000000" fill-opacity="1"><g transform="translate(14.090577, 198.329199)"><g><path d="M 3.375 10.390625 C 3.5625 11.503906 3.984375 12.472656 4.640625 13.296875 C 5.304688 14.128906 6.144531 14.820312 7.15625 15.375 C 8.175781 15.9375 9.332031 16.367188 10.625 16.671875 C 11.914062 16.972656 13.257812 17.1875 14.65625 17.3125 C 16.351562 17.445312 17.769531 17.550781 18.90625 17.625 C 20.039062 17.707031 20.992188 17.757812 21.765625 17.78125 C 22.535156 17.8125 23.164062 17.816406 23.65625 17.796875 C 24.15625 17.773438 24.628906 17.726562 25.078125 17.65625 C 26.742188 17.382812 28.039062 16.851562 28.96875 16.0625 C 29.894531 15.28125 30.226562 14.109375 29.96875 12.546875 C 29.78125 11.429688 29.351562 10.460938 28.6875 9.640625 C 28.019531 8.816406 27.175781 8.125 26.15625 7.5625 C 25.144531 7 23.992188 6.566406 22.703125 6.265625 C 21.421875 5.960938 20.082031 5.753906 18.6875 5.640625 C 16.988281 5.492188 15.566406 5.382812 14.421875 5.3125 C 13.285156 5.238281 12.332031 5.1875 11.5625 5.15625 C 10.789062 5.125 10.15625 5.117188 9.65625 5.140625 C 9.164062 5.160156 8.703125 5.207031 8.265625 5.28125 C 6.585938 5.5625 5.285156 6.09375 4.359375 6.875 C 3.441406 7.65625 3.113281 8.828125 3.375 10.390625 Z M 1.0625 10.59375 C 0.601562 7.769531 1.160156 5.507812 2.734375 3.8125 C 4.304688 2.125 6.632812 1.023438 9.71875 0.515625 C 11.832031 0.171875 14.125 0.140625 16.59375 0.421875 C 19.070312 0.703125 21.410156 1.320312 23.609375 2.28125 C 25.804688 3.238281 27.703125 4.546875 29.296875 6.203125 C 30.898438 7.867188 31.898438 9.914062 32.296875 12.34375 C 32.753906 15.175781 32.191406 17.4375 30.609375 19.125 C 29.035156 20.8125 26.703125 21.910156 23.609375 22.421875 C 21.492188 22.765625 19.203125 22.796875 16.734375 22.515625 C 14.265625 22.242188 11.925781 21.628906 9.71875 20.671875 C 7.519531 19.710938 5.628906 18.398438 4.046875 16.734375 C 2.460938 15.066406 1.46875 13.019531 1.0625 10.59375 Z M 1.0625 10.59375 "/></g></g></g><g fill="#000000" fill-opacity="1"><g transform="translate(19.634727, 229.360795)"><g><path d="M 27.109375 -0.40625 L 25.4375 -5.203125 L 27.4375 -5.421875 L 32.796875 3.359375 L 21.46875 4.390625 L 21.453125 4.859375 C 23.328125 4.960938 25.035156 5.113281 26.578125 5.3125 C 28.128906 5.507812 29.488281 5.828125 30.65625 6.265625 C 31.820312 6.703125 32.796875 7.269531 33.578125 7.96875 C 34.367188 8.675781 34.953125 9.5625 35.328125 10.625 C 35.796875 11.976562 35.820312 13.125 35.40625 14.0625 C 35 15.007812 34.300781 15.65625 33.3125 16 C 32.382812 16.320312 31.457031 16.300781 30.53125 15.9375 C 29.601562 15.582031 28.96875 14.910156 28.625 13.921875 C 28.34375 13.097656 28.359375 12.375 28.671875 11.75 C 28.992188 11.125 29.515625 10.6875 30.234375 10.4375 C 30.691406 10.28125 31.171875 10.226562 31.671875 10.28125 C 32.171875 10.34375 32.59375 10.476562 32.9375 10.6875 L 33.15625 10.25 C 32.59375 9.207031 31.359375 8.359375 29.453125 7.703125 C 27.546875 7.046875 25.253906 6.546875 22.578125 6.203125 C 21.984375 6.128906 21.160156 6.046875 20.109375 5.953125 C 19.066406 5.859375 17.910156 5.769531 16.640625 5.6875 C 15.378906 5.613281 14.066406 5.5625 12.703125 5.53125 C 11.335938 5.507812 10.082031 5.5625 8.9375 5.6875 L 2.1875 6.296875 L 0.703125 2.03125 Z M 27.109375 -0.40625 "/></g></g></g><g fill="#000000" fill-opacity="1"><g transform="translate(29.038968, 254.775798)"><g/></g></g><g fill="#000000" fill-opacity="1"><g transform="translate(35.144972, 267.477443)"><g><path d="M 2.890625 5.875 C 2.296875 4.914062 2.128906 4.03125 2.390625 3.21875 C 2.648438 2.40625 3.148438 1.769531 3.890625 1.3125 C 4.242188 1.09375 4.648438 0.898438 5.109375 0.734375 C 5.566406 0.578125 5.957031 0.445312 6.28125 0.34375 L 27.34375 -6.53125 L 24.65625 -10.828125 L 27.125 -11.640625 L 28.46875 -9.5 C 29.050781 -8.570312 29.640625 -8.003906 30.234375 -7.796875 C 30.835938 -7.585938 31.628906 -7.523438 32.609375 -7.609375 L 38.28125 -8.109375 L 39.671875 -5.90625 L 32.21875 -3.5 L 36.125 2.71875 L 33.65625 3.53125 L 29.75 -2.6875 L 6.640625 4.84375 L 6.6875 5.875 L 16.09375 9.609375 L 15.609375 11.375 L 8.5 9.09375 C 7.507812 8.78125 6.703125 8.503906 6.078125 8.265625 C 5.460938 8.023438 4.957031 7.785156 4.5625 7.546875 C 4.164062 7.304688 3.84375 7.050781 3.59375 6.78125 C 3.34375 6.519531 3.109375 6.21875 2.890625 5.875 Z M 2.890625 5.875 "/></g></g></g><g fill="#000000" fill-opacity="1"><g transform="translate(47.464077, 287.478946)"><g><path d="M 13.171875 15.828125 C 12.421875 14.984375 12.101562 14.128906 12.21875 13.265625 C 12.332031 12.410156 12.710938 11.695312 13.359375 11.125 C 13.671875 10.84375 14.019531 10.578125 14.40625 10.328125 C 14.800781 10.085938 15.175781 9.882812 15.53125 9.71875 L 32.40625 1.375 C 32.84375 1.132812 33.203125 0.890625 33.484375 0.640625 C 34.304688 -0.0859375 34.367188 -0.84375 33.671875 -1.625 C 32.992188 -2.382812 31.851562 -2.910156 30.25 -3.203125 C 28.644531 -3.492188 26.800781 -3.566406 24.71875 -3.421875 C 22.632812 -3.285156 20.441406 -2.921875 18.140625 -2.328125 C 15.847656 -1.734375 13.664062 -0.890625 11.59375 0.203125 L 3.796875 4.265625 L 0.796875 0.890625 L 36.28125 -17.65625 L 32.90625 -21.453125 L 34.6875 -22.4375 L 43.046875 -16.265625 L 20.296875 -4.578125 L 20.453125 -4.125 C 22.085938 -4.507812 23.710938 -4.851562 25.328125 -5.15625 C 26.953125 -5.46875 28.503906 -5.628906 29.984375 -5.640625 C 31.472656 -5.648438 32.84375 -5.457031 34.09375 -5.0625 C 35.351562 -4.664062 36.4375 -3.957031 37.34375 -2.9375 C 38.414062 -1.726562 38.863281 -0.554688 38.6875 0.578125 C 38.519531 1.710938 37.925781 2.734375 36.90625 3.640625 C 36.289062 4.191406 35.476562 4.71875 34.46875 5.21875 L 16.578125 14.140625 L 16.9375 15.21875 L 26.125 15.75 L 26.21875 17.484375 L 20.046875 17.59375 C 17.972656 17.65625 16.441406 17.523438 15.453125 17.203125 C 14.460938 16.878906 13.703125 16.421875 13.171875 15.828125 Z M 13.171875 15.828125 "/></g></g></g><g fill="#000000" fill-opacity="1"><g transform="translate(71.087401, 313.115996)"><g><path d="M 7.1875 6.421875 C 5.164062 4.847656 4.15625 3.132812 4.15625 1.28125 C 4.164062 -0.570312 5.082031 -2.675781 6.90625 -5.03125 C 7.757812 -6.132812 8.78125 -7.25 9.96875 -8.375 C 11.15625 -9.5 12.445312 -10.535156 13.84375 -11.484375 C 15.25 -12.429688 16.722656 -13.238281 18.265625 -13.90625 C 19.816406 -14.582031 21.378906 -15.023438 22.953125 -15.234375 C 24.535156 -15.453125 26.09375 -15.394531 27.625 -15.0625 C 29.15625 -14.738281 30.625 -14.035156 32.03125 -12.953125 C 32.65625 -12.460938 33.234375 -11.898438 33.765625 -11.265625 C 34.296875 -10.640625 34.695312 -9.945312 34.96875 -9.1875 C 35.25 -8.425781 35.335938 -7.628906 35.234375 -6.796875 C 35.140625 -5.972656 34.753906 -5.128906 34.078125 -4.265625 C 33.410156 -3.398438 32.550781 -2.707031 31.5 -2.1875 C 30.445312 -1.664062 29.164062 -1.441406 27.65625 -1.515625 C 26.144531 -1.585938 24.375 -2.023438 22.34375 -2.828125 C 20.320312 -3.640625 18.007812 -4.910156 15.40625 -6.640625 C 14.476562 -5.890625 13.539062 -5.078125 12.59375 -4.203125 C 11.65625 -3.335938 10.863281 -2.488281 10.21875 -1.65625 C 9.25 -0.40625 8.738281 0.757812 8.6875 1.84375 C 8.644531 2.925781 9.160156 3.878906 10.234375 4.703125 C 11.566406 5.742188 13.289062 6.175781 15.40625 6 C 17.519531 5.832031 19.925781 5.179688 22.625 4.046875 L 23.5 5.78125 C 21.65625 6.632812 19.960938 7.3125 18.421875 7.8125 C 16.878906 8.320312 15.453125 8.601562 14.140625 8.65625 C 12.835938 8.71875 11.617188 8.566406 10.484375 8.203125 C 9.359375 7.847656 8.257812 7.253906 7.1875 6.421875 Z M 16.796875 -7.796875 C 20.234375 -5.710938 23.03125 -4.566406 25.1875 -4.359375 C 27.351562 -4.160156 29.09375 -4.90625 30.40625 -6.59375 C 31.0625 -7.4375 31.410156 -8.273438 31.453125 -9.109375 C 31.503906 -9.953125 31.023438 -10.769531 30.015625 -11.5625 C 29.347656 -12.070312 28.613281 -12.414062 27.8125 -12.59375 C 27.007812 -12.769531 26.066406 -12.722656 24.984375 -12.453125 C 23.910156 -12.179688 22.703125 -11.671875 21.359375 -10.921875 C 20.023438 -10.179688 18.503906 -9.140625 16.796875 -7.796875 Z M 16.796875 -7.796875 "/></g></g></g><g fill="#000000" fill-opacity="1"><g transform="translate(93.203438, 329.595302)"><g/></g></g><g fill="#000000" fill-opacity="1"><g transform="translate(105.715464, 337.611672)"><g><path d="M 0.3125 -2.375 L 4.015625 -0.8125 L 25.53125 -29.578125 L 21.828125 -31.140625 L 23.234375 -33.046875 L 35.0625 -28.046875 L 33.640625 -26.15625 L 29.9375 -27.71875 L 8.59375 0.859375 L 21.265625 6.1875 L 25.875 0.03125 L 29.421875 1.515625 L 23.234375 9.78125 L -1.09375 -0.453125 Z M 0.3125 -2.375 "/></g></g></g><g fill="#000000" fill-opacity="1"><g transform="translate(138.008075, 350.653694)"><g><path d="M 10.890625 0.59375 C 12.003906 0.832031 13.066406 0.785156 14.078125 0.453125 C 15.085938 0.128906 16.035156 -0.398438 16.921875 -1.140625 C 17.816406 -1.878906 18.632812 -2.796875 19.375 -3.890625 C 20.125 -4.984375 20.8125 -6.160156 21.4375 -7.421875 C 22.175781 -8.960938 22.785156 -10.25 23.265625 -11.28125 C 23.753906 -12.3125 24.144531 -13.179688 24.4375 -13.890625 C 24.738281 -14.597656 24.96875 -15.1875 25.125 -15.65625 C 25.289062 -16.125 25.421875 -16.582031 25.515625 -17.03125 C 25.859375 -18.6875 25.828125 -20.082031 25.421875 -21.21875 C 25.023438 -22.363281 24.054688 -23.097656 22.515625 -23.421875 C 21.398438 -23.648438 20.335938 -23.601562 19.328125 -23.28125 C 18.328125 -22.957031 17.378906 -22.425781 16.484375 -21.6875 C 15.597656 -20.945312 14.78125 -20.03125 14.03125 -18.9375 C 13.289062 -17.84375 12.613281 -16.660156 12 -15.390625 C 11.25 -13.867188 10.628906 -12.585938 10.140625 -11.546875 C 9.660156 -10.503906 9.269531 -9.628906 8.96875 -8.921875 C 8.675781 -8.210938 8.445312 -7.625 8.28125 -7.15625 C 8.125 -6.6875 8.003906 -6.234375 7.921875 -5.796875 C 7.566406 -4.140625 7.585938 -2.738281 7.984375 -1.59375 C 8.378906 -0.457031 9.347656 0.269531 10.890625 0.59375 Z M 10.265625 2.828125 C 7.453125 2.242188 5.539062 0.914062 4.53125 -1.15625 C 3.53125 -3.238281 3.347656 -5.8125 3.984375 -8.875 C 4.429688 -10.976562 5.226562 -13.128906 6.375 -15.328125 C 7.53125 -17.535156 8.953125 -19.492188 10.640625 -21.203125 C 12.328125 -22.910156 14.234375 -24.207031 16.359375 -25.09375 C 18.484375 -25.976562 20.75 -26.171875 23.15625 -25.671875 C 25.96875 -25.085938 27.875 -23.753906 28.875 -21.671875 C 29.882812 -19.585938 30.070312 -17.007812 29.4375 -13.9375 C 28.988281 -11.84375 28.191406 -9.691406 27.046875 -7.484375 C 25.898438 -5.285156 24.476562 -3.332031 22.78125 -1.625 C 21.09375 0.0820312 19.1875 1.375 17.0625 2.25 C 14.9375 3.132812 12.671875 3.328125 10.265625 2.828125 Z M 10.265625 2.828125 "/></g></g></g><g fill="#000000" fill-opacity="1"><g transform="translate(169.005992, 356.707738)"><g><path d="M 5.859375 -26.6875 L 3.3125 -26.765625 L 3.953125 -29.0625 L 14.59375 -28.734375 L 13.953125 -26.4375 L 10.4375 -26.546875 L 11.203125 -5.140625 L 11.65625 -5.125 L 24.28125 -26.125 L 20.78125 -26.234375 L 21.421875 -28.515625 L 30.578125 -28.234375 L 29.875 -25.953125 L 27.5 -26.015625 L 10.625 0.328125 L 7.234375 0.21875 Z M 5.859375 -26.6875 "/></g></g></g><g fill="#000000" fill-opacity="1"><g transform="translate(197.963058, 357.305212)"><g><path d="M 9.609375 -0.625 C 7.078125 -0.28125 5.148438 -0.757812 3.828125 -2.0625 C 2.515625 -3.363281 1.65625 -5.488281 1.25 -8.4375 C 1.0625 -9.820312 0.976562 -11.332031 1 -12.96875 C 1.019531 -14.613281 1.179688 -16.265625 1.484375 -17.921875 C 1.796875 -19.578125 2.253906 -21.195312 2.859375 -22.78125 C 3.472656 -24.363281 4.253906 -25.789062 5.203125 -27.0625 C 6.148438 -28.34375 7.273438 -29.414062 8.578125 -30.28125 C 9.890625 -31.144531 11.425781 -31.691406 13.1875 -31.921875 C 13.96875 -32.035156 14.769531 -32.0625 15.59375 -32 C 16.425781 -31.9375 17.207031 -31.734375 17.9375 -31.390625 C 18.675781 -31.054688 19.304688 -30.5625 19.828125 -29.90625 C 20.347656 -29.257812 20.679688 -28.394531 20.828125 -27.3125 C 20.972656 -26.226562 20.863281 -25.128906 20.5 -24.015625 C 20.144531 -22.898438 19.410156 -21.828125 18.296875 -20.796875 C 17.179688 -19.765625 15.625 -18.8125 13.625 -17.9375 C 11.632812 -17.0625 9.101562 -16.300781 6.03125 -15.65625 C 5.925781 -14.457031 5.851562 -13.21875 5.8125 -11.9375 C 5.78125 -10.664062 5.835938 -9.507812 5.984375 -8.46875 C 6.191406 -6.894531 6.664062 -5.710938 7.40625 -4.921875 C 8.144531 -4.128906 9.1875 -3.820312 10.53125 -4 C 12.207031 -4.226562 13.722656 -5.15625 15.078125 -6.78125 C 16.429688 -8.414062 17.648438 -10.597656 18.734375 -13.328125 L 20.578125 -12.71875 C 19.898438 -10.800781 19.203125 -9.117188 18.484375 -7.671875 C 17.765625 -6.222656 16.960938 -5.007812 16.078125 -4.03125 C 15.203125 -3.0625 14.242188 -2.296875 13.203125 -1.734375 C 12.160156 -1.171875 10.960938 -0.800781 9.609375 -0.625 Z M 6.1875 -17.4375 C 10.082031 -18.4375 12.859375 -19.632812 14.515625 -21.03125 C 16.171875 -22.4375 16.859375 -24.203125 16.578125 -26.328125 C 16.429688 -27.378906 16.078125 -28.21875 15.515625 -28.84375 C 14.953125 -29.46875 14.035156 -29.691406 12.765625 -29.515625 C 11.941406 -29.398438 11.179688 -29.117188 10.484375 -28.671875 C 9.785156 -28.222656 9.160156 -27.519531 8.609375 -26.5625 C 8.054688 -25.601562 7.578125 -24.382812 7.171875 -22.90625 C 6.765625 -21.4375 6.4375 -19.613281 6.1875 -17.4375 Z M 6.1875 -17.4375 "/></g></g></g><g fill="#000000" fill-opacity="1"><g transform="translate(225.21246, 353.052987)"><g/></g></g><g fill="#000000" fill-opacity="1"><g transform="translate(239.472328, 349.682705)"><g><path d="M 9.375 -5.59375 C 10.425781 -6.019531 11.28125 -6.648438 11.9375 -7.484375 C 12.59375 -8.328125 13.082031 -9.300781 13.40625 -10.40625 C 13.738281 -11.519531 13.90625 -12.738281 13.90625 -14.0625 C 13.90625 -15.382812 13.804688 -16.742188 13.609375 -18.140625 C 13.367188 -19.828125 13.160156 -21.234375 12.984375 -22.359375 C 12.804688 -23.484375 12.644531 -24.425781 12.5 -25.1875 C 12.351562 -25.945312 12.210938 -26.5625 12.078125 -27.03125 C 11.953125 -27.507812 11.800781 -27.957031 11.625 -28.375 C 10.988281 -29.9375 10.1875 -31.082031 9.21875 -31.8125 C 8.257812 -32.539062 7.046875 -32.609375 5.578125 -32.015625 C 4.523438 -31.578125 3.671875 -30.941406 3.015625 -30.109375 C 2.367188 -29.273438 1.882812 -28.300781 1.5625 -27.1875 C 1.238281 -26.082031 1.070312 -24.863281 1.0625 -23.53125 C 1.0625 -22.207031 1.15625 -20.859375 1.34375 -19.484375 C 1.582031 -17.785156 1.789062 -16.375 1.96875 -15.25 C 2.144531 -14.125 2.304688 -13.179688 2.453125 -12.421875 C 2.597656 -11.660156 2.738281 -11.039062 2.875 -10.5625 C 3.007812 -10.082031 3.160156 -9.632812 3.328125 -9.21875 C 3.960938 -7.65625 4.757812 -6.507812 5.71875 -5.78125 C 6.6875 -5.050781 7.90625 -4.988281 9.375 -5.59375 Z M 10.09375 -3.390625 C 7.4375 -2.304688 5.109375 -2.34375 3.109375 -3.5 C 1.117188 -4.664062 -0.460938 -6.695312 -1.640625 -9.59375 C -2.453125 -11.582031 -3 -13.8125 -3.28125 -16.28125 C -3.5625 -18.757812 -3.476562 -21.175781 -3.03125 -23.53125 C -2.582031 -25.882812 -1.722656 -28.023438 -0.453125 -29.953125 C 0.816406 -31.878906 2.59375 -33.304688 4.875 -34.234375 C 7.519531 -35.316406 9.835938 -35.273438 11.828125 -34.109375 C 13.828125 -32.953125 15.421875 -30.921875 16.609375 -28.015625 C 17.421875 -26.023438 17.960938 -23.796875 18.234375 -21.328125 C 18.515625 -18.859375 18.429688 -16.441406 17.984375 -14.078125 C 17.535156 -11.710938 16.675781 -9.570312 15.40625 -7.65625 C 14.132812 -5.738281 12.363281 -4.316406 10.09375 -3.390625 Z M 10.09375 -3.390625 "/></g></g></g><g fill="#000000" fill-opacity="1"><g transform="translate(267.92777, 337.41675)"><g><path d="M 2.1875 12.625 C 0.601562 13.5625 -0.6875 13.921875 -1.6875 13.703125 C -2.695312 13.492188 -3.453125 12.96875 -3.953125 12.125 C -4.421875 11.3125 -4.570312 10.484375 -4.40625 9.640625 C -4.25 8.804688 -3.765625 8.148438 -2.953125 7.671875 C -2.203125 7.222656 -1.5 7.097656 -0.84375 7.296875 C -0.1875 7.492188 0.332031 7.921875 0.71875 8.578125 C 0.894531 8.859375 1.023438 9.234375 1.109375 9.703125 C 1.203125 10.179688 1.109375 10.707031 0.828125 11.28125 L 1.21875 11.5 C 2.738281 10.59375 3.5625 9.359375 3.6875 7.796875 C 3.8125 6.242188 3.546875 4.390625 2.890625 2.234375 L -5.96875 -27.4375 L -10.40625 -24.8125 L -11.140625 -27.296875 L -6.671875 -29.953125 L -7.984375 -34.171875 C -8.398438 -35.535156 -8.625 -36.890625 -8.65625 -38.234375 C -8.6875 -39.585938 -8.5 -40.863281 -8.09375 -42.0625 C -7.6875 -43.269531 -7.066406 -44.390625 -6.234375 -45.421875 C -5.398438 -46.453125 -4.367188 -47.332031 -3.140625 -48.0625 C -1.546875 -49.007812 -0.25 -49.375 0.75 -49.15625 C 1.75 -48.9375 2.5 -48.40625 3 -47.5625 C 3.476562 -46.75 3.640625 -45.921875 3.484375 -45.078125 C 3.328125 -44.242188 2.84375 -43.585938 2.03125 -43.109375 C 1.28125 -42.660156 0.578125 -42.539062 -0.078125 -42.75 C -0.742188 -42.957031 -1.269531 -43.382812 -1.65625 -44.03125 C -1.832031 -44.320312 -1.960938 -44.703125 -2.046875 -45.171875 C -2.140625 -45.640625 -2.039062 -46.160156 -1.75 -46.734375 L -2.15625 -46.9375 C -3.695312 -46.019531 -4.613281 -44.742188 -4.90625 -43.109375 C -5.195312 -41.484375 -5 -39.578125 -4.3125 -37.390625 L -2.765625 -32.25 L 2.53125 -35.390625 L 3.28125 -32.890625 L -2.03125 -29.765625 L 6.5625 -1 C 6.988281 0.375 7.210938 1.734375 7.234375 3.078125 C 7.265625 4.421875 7.101562 5.675781 6.75 6.84375 C 6.394531 8.019531 5.835938 9.101562 5.078125 10.09375 C 4.328125 11.082031 3.363281 11.925781 2.1875 12.625 Z M 2.1875 12.625 "/></g></g></g><g fill="#000000" fill-opacity="1"><g transform="translate(284.097358, 327.606034)"><g/></g></g><g fill="#000000" fill-opacity="1"><g transform="translate(296.948735, 319.204929)"><g><path d="M -2.078125 -1.1875 L 0.75 -4.03125 L -17.9375 -34.703125 L -20.75 -31.84375 L -22 -33.875 L -11.390625 -44.59375 C -10.023438 -45.96875 -8.59375 -47.023438 -7.09375 -47.765625 C -5.601562 -48.503906 -4.066406 -48.890625 -2.484375 -48.921875 C -0.910156 -48.953125 0.671875 -48.613281 2.265625 -47.90625 C 3.867188 -47.195312 5.453125 -46.070312 7.015625 -44.53125 C 7.859375 -43.6875 8.820312 -42.546875 9.90625 -41.109375 C 10.988281 -39.671875 11.992188 -38.050781 12.921875 -36.25 C 13.859375 -34.445312 14.65625 -32.476562 15.3125 -30.34375 C 15.96875 -28.207031 16.285156 -26.035156 16.265625 -23.828125 C 16.253906 -21.617188 15.8125 -19.390625 14.9375 -17.140625 C 14.070312 -14.898438 12.617188 -12.75 10.578125 -10.6875 L -0.828125 0.84375 Z M 3.984375 -7.65625 L 8.484375 -12.203125 C 9.734375 -13.460938 10.671875 -14.90625 11.296875 -16.53125 C 11.929688 -18.164062 12.257812 -19.882812 12.28125 -21.6875 C 12.300781 -23.5 12.035156 -25.347656 11.484375 -27.234375 C 10.941406 -29.128906 10.140625 -30.976562 9.078125 -32.78125 C 8.242188 -34.144531 7.523438 -35.3125 6.921875 -36.28125 C 6.316406 -37.25 5.78125 -38.078125 5.3125 -38.765625 C 4.851562 -39.460938 4.414062 -40.066406 4 -40.578125 C 3.59375 -41.097656 3.160156 -41.585938 2.703125 -42.046875 C 0.722656 -44.003906 -1.375 -45.0625 -3.59375 -45.21875 C -5.820312 -45.375 -7.972656 -44.410156 -10.046875 -42.328125 L -14.421875 -37.90625 Z M 3.984375 -7.65625 "/></g></g></g><g fill="#000000" fill-opacity="1"><g transform="translate(325.495769, 288.869683)"><g><path d="M 5.796875 -7.703125 C 4.398438 -5.554688 2.773438 -4.40625 0.921875 -4.25 C -0.921875 -4.101562 -3.085938 -4.84375 -5.578125 -6.46875 C -6.753906 -7.226562 -7.957031 -8.148438 -9.1875 -9.234375 C -10.414062 -10.316406 -11.554688 -11.515625 -12.609375 -12.828125 C -13.671875 -14.148438 -14.601562 -15.554688 -15.40625 -17.046875 C -16.207031 -18.535156 -16.78125 -20.050781 -17.125 -21.59375 C -17.46875 -23.144531 -17.539062 -24.695312 -17.34375 -26.25 C -17.144531 -27.800781 -16.5625 -29.320312 -15.59375 -30.8125 C -15.164062 -31.476562 -14.65625 -32.101562 -14.0625 -32.6875 C -13.476562 -33.28125 -12.820312 -33.742188 -12.09375 -34.078125 C -11.363281 -34.410156 -10.582031 -34.5625 -9.75 -34.53125 C -8.914062 -34.5 -8.039062 -34.1875 -7.125 -33.59375 C -6.207031 -33 -5.441406 -32.203125 -4.828125 -31.203125 C -4.210938 -30.203125 -3.878906 -28.941406 -3.828125 -27.421875 C -3.773438 -25.910156 -4.066406 -24.113281 -4.703125 -22.03125 C -5.347656 -19.945312 -6.421875 -17.535156 -7.921875 -14.796875 C -7.085938 -13.929688 -6.195312 -13.066406 -5.25 -12.203125 C -4.3125 -11.335938 -3.398438 -10.617188 -2.515625 -10.046875 C -1.179688 -9.179688 0.0195312 -8.769531 1.09375 -8.8125 C 2.175781 -8.863281 3.085938 -9.457031 3.828125 -10.59375 C 4.753906 -12.019531 5.039062 -13.773438 4.6875 -15.859375 C 4.34375 -17.941406 3.484375 -20.285156 2.109375 -22.890625 L 3.765625 -23.90625 C 4.773438 -22.132812 5.59375 -20.503906 6.21875 -19.015625 C 6.851562 -17.523438 7.253906 -16.128906 7.421875 -14.828125 C 7.597656 -13.535156 7.554688 -12.3125 7.296875 -11.15625 C 7.035156 -10 6.535156 -8.847656 5.796875 -7.703125 Z M -9.171875 -16.078125 C -7.390625 -19.671875 -6.488281 -22.550781 -6.46875 -24.71875 C -6.445312 -26.894531 -7.335938 -28.566406 -9.140625 -29.734375 C -10.035156 -30.316406 -10.898438 -30.597656 -11.734375 -30.578125 C -12.578125 -30.554688 -13.347656 -30.007812 -14.046875 -28.9375 C -14.492188 -28.226562 -14.773438 -27.460938 -14.890625 -26.640625 C -15.003906 -25.828125 -14.878906 -24.894531 -14.515625 -23.84375 C -14.160156 -22.800781 -13.554688 -21.644531 -12.703125 -20.375 C -11.847656 -19.101562 -10.671875 -17.671875 -9.171875 -16.078125 Z M -9.171875 -16.078125 "/></g></g></g><g fill="#000000" fill-opacity="1"><g transform="translate(340.508053, 265.012783)"><g><path d="M 3.0625 -5.125 C 2.207031 -3.238281 1.253906 -2.023438 0.203125 -1.484375 C -0.835938 -0.953125 -1.859375 -0.914062 -2.859375 -1.375 C -3.609375 -1.707031 -4.160156 -2.242188 -4.515625 -2.984375 C -4.867188 -3.722656 -4.84375 -4.535156 -4.4375 -5.421875 C -4.125 -6.109375 -3.664062 -6.582031 -3.0625 -6.84375 C -2.46875 -7.113281 -1.773438 -7.070312 -0.984375 -6.71875 C -0.609375 -6.539062 -0.253906 -6.28125 0.078125 -5.9375 C 0.421875 -5.601562 0.664062 -5.238281 0.8125 -4.84375 L 1.265625 -4.828125 C 1.554688 -5.484375 1.804688 -6.222656 2.015625 -7.046875 C 2.222656 -7.878906 2.300781 -8.71875 2.25 -9.5625 C 2.195312 -10.40625 1.941406 -11.191406 1.484375 -11.921875 C 1.023438 -12.660156 0.285156 -13.265625 -0.734375 -13.734375 C -1.492188 -14.078125 -2.226562 -14.285156 -2.9375 -14.359375 C -3.644531 -14.429688 -4.367188 -14.40625 -5.109375 -14.28125 C -5.847656 -14.164062 -6.601562 -13.984375 -7.375 -13.734375 C -8.144531 -13.492188 -9.007812 -13.234375 -9.96875 -12.953125 C -11.0625 -12.628906 -12.175781 -12.398438 -13.3125 -12.265625 C -14.445312 -12.140625 -15.703125 -12.390625 -17.078125 -13.015625 C -18.285156 -13.566406 -19.285156 -14.285156 -20.078125 -15.171875 C -20.867188 -16.066406 -21.4375 -17.085938 -21.78125 -18.234375 C -22.132812 -19.390625 -22.253906 -20.613281 -22.140625 -21.90625 C -22.035156 -23.207031 -21.675781 -24.523438 -21.0625 -25.859375 C -20.226562 -27.710938 -19.28125 -28.894531 -18.21875 -29.40625 C -17.15625 -29.914062 -16.144531 -29.957031 -15.1875 -29.53125 C -14.425781 -29.1875 -13.875 -28.644531 -13.53125 -27.90625 C -13.1875 -27.175781 -13.21875 -26.367188 -13.625 -25.484375 C -13.9375 -24.785156 -14.390625 -24.300781 -14.984375 -24.03125 C -15.578125 -23.769531 -16.269531 -23.816406 -17.0625 -24.171875 C -17.4375 -24.335938 -17.789062 -24.59375 -18.125 -24.9375 C -18.46875 -25.28125 -18.71875 -25.648438 -18.875 -26.046875 L -19.3125 -26.0625 C -19.582031 -25.445312 -19.8125 -24.742188 -20 -23.953125 C -20.1875 -23.171875 -20.226562 -22.394531 -20.125 -21.625 C -20.019531 -20.851562 -19.734375 -20.117188 -19.265625 -19.421875 C -18.796875 -18.734375 -18.039062 -18.15625 -17 -17.6875 C -16.25 -17.351562 -15.519531 -17.144531 -14.8125 -17.0625 C -14.101562 -16.988281 -13.378906 -17.015625 -12.640625 -17.140625 C -11.898438 -17.265625 -11.132812 -17.445312 -10.34375 -17.6875 C -9.550781 -17.925781 -8.691406 -18.1875 -7.765625 -18.46875 C -6.671875 -18.8125 -5.554688 -19.046875 -4.421875 -19.171875 C -3.285156 -19.296875 -2.03125 -19.046875 -0.65625 -18.421875 C 0.539062 -17.878906 1.53125 -17.140625 2.3125 -16.203125 C 3.09375 -15.273438 3.640625 -14.21875 3.953125 -13.03125 C 4.265625 -11.851562 4.347656 -10.582031 4.203125 -9.21875 C 4.054688 -7.863281 3.675781 -6.5 3.0625 -5.125 Z M 3.0625 -5.125 "/></g></g></g><g fill="#000000" fill-opacity="1"><g transform="translate(349.906865, 243.5846)"><g><path d="M 2.53125 -5.90625 C 2.207031 -4.851562 1.648438 -4.15625 0.859375 -3.8125 C 0.0664062 -3.46875 -0.742188 -3.421875 -1.578125 -3.671875 C -1.972656 -3.796875 -2.367188 -3.972656 -2.765625 -4.203125 C -3.171875 -4.429688 -3.539062 -4.640625 -3.875 -4.828125 L -22.046875 -15.78125 L -23.546875 -10.9375 L -25.296875 -11.953125 L -24.3125 -22.359375 L -0.65625 -7.96875 L 0.0625 -8.796875 L -4.21875 -16.9375 L -2.78125 -17.90625 L 0.5 -12.6875 C 1.632812 -10.957031 2.316406 -9.59375 2.546875 -8.59375 C 2.785156 -7.59375 2.78125 -6.695312 2.53125 -5.90625 Z M -30.5 -23.453125 C -30.75 -22.617188 -31.171875 -22.066406 -31.765625 -21.796875 C -32.367188 -21.535156 -32.9375 -21.488281 -33.46875 -21.65625 C -33.625 -21.707031 -33.789062 -21.757812 -33.96875 -21.8125 C -34.144531 -21.863281 -34.3125 -21.957031 -34.46875 -22.09375 C -35.125 -22.488281 -35.59375 -23.023438 -35.875 -23.703125 C -36.164062 -24.390625 -36.179688 -25.144531 -35.921875 -25.96875 C -35.671875 -26.789062 -35.242188 -27.335938 -34.640625 -27.609375 C -34.046875 -27.878906 -33.476562 -27.929688 -32.9375 -27.765625 C -32.789062 -27.722656 -32.628906 -27.671875 -32.453125 -27.609375 C -32.273438 -27.554688 -32.109375 -27.46875 -31.953125 -27.34375 C -31.285156 -26.9375 -30.8125 -26.390625 -30.53125 -25.703125 C -30.25 -25.023438 -30.238281 -24.273438 -30.5 -23.453125 Z M -30.5 -23.453125 "/></g></g></g><g fill="#000000" fill-opacity="1"><g transform="translate(355.932657, 224.660971)"><g><path d="M 13.015625 -5.53125 C 12.398438 -1.664062 11.367188 1.078125 9.921875 2.703125 C 8.484375 4.328125 6.945312 5.007812 5.3125 4.75 C 4.300781 4.582031 3.445312 4.15625 2.75 3.46875 C 2.0625 2.789062 1.484375 1.953125 1.015625 0.953125 C 0.546875 -0.0351562 0.195312 -1.097656 -0.03125 -2.234375 C -0.269531 -3.378906 -0.453125 -4.519531 -0.578125 -5.65625 L -0.90625 -5.796875 C -1.5625 -4.773438 -2.269531 -3.988281 -3.03125 -3.4375 C -3.789062 -2.882812 -4.691406 -2.691406 -5.734375 -2.859375 C -6.515625 -2.984375 -7.179688 -3.273438 -7.734375 -3.734375 C -8.296875 -4.191406 -8.75 -4.726562 -9.09375 -5.34375 C -9.4375 -5.96875 -9.691406 -6.640625 -9.859375 -7.359375 C -10.023438 -8.078125 -10.128906 -8.785156 -10.171875 -9.484375 L -10.421875 -9.578125 C -11.222656 -8.671875 -12.195312 -8.03125 -13.34375 -7.65625 C -14.488281 -7.289062 -15.769531 -7.222656 -17.1875 -7.453125 C -18.820312 -7.710938 -20.296875 -8.269531 -21.609375 -9.125 C -22.929688 -9.988281 -24.015625 -11.039062 -24.859375 -12.28125 C -25.703125 -13.53125 -26.304688 -14.925781 -26.671875 -16.46875 C -27.046875 -18.019531 -27.101562 -19.613281 -26.84375 -21.25 C -26.707031 -22.09375 -26.476562 -22.84375 -26.15625 -23.5 C -25.832031 -24.164062 -25.441406 -24.765625 -24.984375 -25.296875 C -26.628906 -25.984375 -27.863281 -26.734375 -28.6875 -27.546875 C -29.507812 -28.367188 -29.820312 -29.394531 -29.625 -30.625 C -29.5 -31.4375 -29.195312 -32.035156 -28.71875 -32.421875 C -28.238281 -32.804688 -27.65625 -32.941406 -26.96875 -32.828125 C -26.226562 -32.710938 -25.640625 -32.351562 -25.203125 -31.75 C -24.773438 -31.15625 -24.617188 -30.484375 -24.734375 -29.734375 C -24.835938 -29.097656 -25.039062 -28.644531 -25.34375 -28.375 C -25.65625 -28.101562 -26.0625 -27.925781 -26.5625 -27.84375 L -26.59375 -27.625 L -23.921875 -26.28125 C -22.398438 -27.375 -20.523438 -27.742188 -18.296875 -27.390625 C -16.660156 -27.117188 -15.191406 -26.550781 -13.890625 -25.6875 C -12.585938 -24.832031 -11.503906 -23.785156 -10.640625 -22.546875 C -9.773438 -21.304688 -9.171875 -19.910156 -8.828125 -18.359375 C -8.484375 -16.816406 -8.441406 -15.242188 -8.703125 -13.640625 C -8.828125 -12.859375 -9.007812 -12.1875 -9.25 -11.625 C -9.25 -11.132812 -9.21875 -10.625 -9.15625 -10.09375 C -9.09375 -9.5625 -8.960938 -9.0625 -8.765625 -8.59375 C -8.566406 -8.125 -8.3125 -7.726562 -8 -7.40625 C -7.6875 -7.082031 -7.289062 -6.882812 -6.8125 -6.8125 C -6.175781 -6.707031 -5.671875 -6.921875 -5.296875 -7.453125 C -4.929688 -7.992188 -4.457031 -8.769531 -3.875 -9.78125 L -0.96875 -15.046875 C 0.144531 -17.015625 1.289062 -18.519531 2.46875 -19.5625 C 3.644531 -20.613281 5.148438 -20.992188 6.984375 -20.703125 C 8.429688 -20.472656 9.613281 -19.882812 10.53125 -18.9375 C 11.445312 -17.988281 12.132812 -16.804688 12.59375 -15.390625 C 13.0625 -13.984375 13.316406 -12.425781 13.359375 -10.71875 C 13.410156 -9.007812 13.296875 -7.28125 13.015625 -5.53125 Z M -10.625 -14.46875 C -10.375 -16.03125 -10.707031 -17.410156 -11.625 -18.609375 C -12.539062 -19.804688 -13.960938 -20.828125 -15.890625 -21.671875 C -17.316406 -22.273438 -18.328125 -22.671875 -18.921875 -22.859375 C -19.515625 -23.054688 -19.984375 -23.179688 -20.328125 -23.234375 C -21.546875 -23.429688 -22.5625 -23.328125 -23.375 -22.921875 C -24.195312 -22.523438 -24.710938 -21.675781 -24.921875 -20.375 C -25.171875 -18.8125 -24.835938 -17.425781 -23.921875 -16.21875 C -23.003906 -15.019531 -21.582031 -14 -19.65625 -13.15625 C -18.945312 -12.851562 -18.335938 -12.609375 -17.828125 -12.421875 C -17.328125 -12.234375 -16.910156 -12.082031 -16.578125 -11.96875 C -16.253906 -11.863281 -15.976562 -11.78125 -15.75 -11.71875 C -15.53125 -11.664062 -15.34375 -11.625 -15.1875 -11.59375 C -13.925781 -11.394531 -12.898438 -11.492188 -12.109375 -11.890625 C -11.328125 -12.296875 -10.832031 -13.15625 -10.625 -14.46875 Z M 11.40625 -6.515625 C 11.5625 -7.484375 11.628906 -8.503906 11.609375 -9.578125 C 11.585938 -10.660156 11.4375 -11.65625 11.15625 -12.5625 C 10.882812 -13.46875 10.441406 -14.242188 9.828125 -14.890625 C 9.210938 -15.535156 8.398438 -15.941406 7.390625 -16.109375 C 6.273438 -16.285156 5.390625 -16.070312 4.734375 -15.46875 C 4.085938 -14.875 3.4375 -13.976562 2.78125 -12.78125 L 0.125 -7.875 C 0.28125 -6.90625 0.484375 -5.957031 0.734375 -5.03125 C 0.984375 -4.113281 1.320312 -3.273438 1.75 -2.515625 C 2.1875 -1.765625 2.707031 -1.140625 3.3125 -0.640625 C 3.925781 -0.148438 4.640625 0.160156 5.453125 0.296875 C 6.828125 0.515625 8.054688 0.0820312 9.140625 -1 C 10.234375 -2.082031 10.988281 -3.921875 11.40625 -6.515625 Z M 11.40625 -6.515625 "/></g></g></g><g fill="#000000" fill-opacity="1"><g transform="translate(360.658942, 194.418797)"><g><path d="M -0.046875 -21.546875 C -0.00390625 -20.410156 -0.300781 -19.550781 -0.9375 -18.96875 C -1.582031 -18.382812 -2.335938 -18.078125 -3.203125 -18.046875 C -3.617188 -18.035156 -4.050781 -18.054688 -4.5 -18.109375 C -4.957031 -18.171875 -5.375 -18.253906 -5.75 -18.359375 L -24.0625 -22.75 C -24.550781 -22.832031 -24.984375 -22.867188 -25.359375 -22.859375 C -26.453125 -22.816406 -26.984375 -22.269531 -26.953125 -21.21875 C -26.921875 -20.238281 -26.382812 -19.113281 -25.34375 -17.84375 C -24.300781 -16.582031 -22.925781 -15.335938 -21.21875 -14.109375 C -19.519531 -12.890625 -17.601562 -11.78125 -15.46875 -10.78125 C -13.332031 -9.78125 -11.117188 -9.035156 -8.828125 -8.546875 L -0.21875 -6.671875 L -0.078125 -2.15625 L -26 -7.671875 L -25.828125 -2.59375 L -27.8125 -2.984375 L -30.3125 -12.96875 L -18.546875 -10.421875 L -18.390625 -10.890625 C -19.898438 -11.628906 -21.375 -12.394531 -22.8125 -13.1875 C -24.25 -13.988281 -25.539062 -14.859375 -26.6875 -15.796875 C -27.84375 -16.742188 -28.773438 -17.769531 -29.484375 -18.875 C -30.203125 -19.988281 -30.582031 -21.222656 -30.625 -22.578125 C -30.675781 -24.203125 -30.269531 -25.394531 -29.40625 -26.15625 C -28.550781 -26.914062 -27.441406 -27.320312 -26.078125 -27.375 C -25.253906 -27.394531 -24.289062 -27.273438 -23.1875 -27.015625 L -3.75 -22.453125 L -3.328125 -23.484375 L -10.046875 -29.765625 L -9.015625 -31.15625 L -4.1875 -27.296875 C -2.5625 -26.035156 -1.46875 -24.957031 -0.90625 -24.0625 C -0.351562 -23.175781 -0.0664062 -22.335938 -0.046875 -21.546875 Z M -0.046875 -21.546875 "/></g></g></g></svg>